<svg xmlns="http://www.w3.org/2000/svg" viewBox="0 0 1000 1000"><path d="M467.93 10.87c-118.28 7.79-230.96 58.74-314.88 142.65-38.76 38.96-67.73 79.72-92.7 130.07C25.18 354.92 10 420.25 10 500.37c0 80.32 15.18 145.45 50.35 216.78 24.77 50.35 52.15 88.71 90.91 128.07 76.72 77.52 176.42 127.07 285.71 141.66 31.97 4.4 94.1 4.4 125.87 0 54.94-7.39 104.09-22.38 153.84-46.95 98.7-48.75 173.82-123.67 222.77-222.77 34.37-69.15 50.15-137.27 50.55-216.79.2-77.32-15.98-146.65-50.55-216.78-48.75-98.7-123.88-173.82-222.77-222.77-77.52-38.37-163.24-55.55-248.75-49.95zm57.94 23.77c3.6 2.6 5.39 6.19 6.2 12.39.8 4.79 1.2 90.11 1.2 189.61 0 203.39-.8 192.8 14.98 210.78 4.39 5 12.79 11.59 18.38 14.58l10.19 5.4 85.91.4c47.35.4 133.27.8 191.21 1l105.49.6 5.39 5.59 5.59 5.4-.4 29.57c-1.6 120.48-50.95 236.36-137.46 323.07-59.53 59.34-134.45 102.49-213.37 122.67-93.51 23.98-192.8 19.38-280.51-12.99-156.05-57.34-271.33-193.4-301.3-355.63-22.38-120.88 3-245.75 70.13-346.45C178.83 133.54 288.31 61.01 413.79 37.64c49.35-9.19 101.69-10.59 112.08-3zm70.73 5.2C780.01 77.8 924.46 223.65 961.23 407.46c2.2 10.99 4.6 25.57 5.39 32.37l1.4 12.39-6.79-1.8c-4.2-1.2-78.92-2-192.2-2-201.6 0-190.41.6-202.79-10.79-11.99-10.79-11.39 1.4-12.39-206.99-.6-108.69-1.8-192.4-2.79-194.6-1.8-3.6-1.2-3.8 9.99-2.4 6.58.8 22.56 3.6 35.55 6.2z"/><path d="M350.85 611.05c-12.19 3.8-20.18 10.79-25.77 21.98-6.79 13.39-6.79 30.17-.2 44.16 5.19 11.19 9.59 15.58 31.37 31.57 18.58 13.39 24.18 20.78 25.37 33.37 2.2 24.17-19.38 38.36-44.55 28.77-14.39-5.39-14.39-5.39-16.58.6-1 3-2.6 6.99-3.4 8.99-2.2 5.39 17.58 11.59 36.56 11.59 33.17-.2 50.95-16.78 51.15-47.95.2-23.18-7.39-34.77-35.56-53.95-21.58-14.58-27.17-22.18-27.17-37.16 0-20.38 18.58-30.77 41.16-22.98 6.39 2.2 11.79 3.8 11.99 3.6 0-.2 1.6-4.2 3.4-8.79l3.2-8.19-8.39-3.4c-11.01-4.6-32.19-5.6-42.58-2.21zm119.48 1c-18.98 6.59-32.37 23.98-38.36 50.15-3.6 15.38-3.2 59.54.8 76.52 5.59 23.97 15.98 39.16 32.17 47.95 11.19 6.2 44.16 6.39 55.94.4 8.39-4.2 9.19-6.79 5.2-17.78-2-4.99-2.4-5.19-6.79-2.4-2.4 1.6-8.99 4-14.79 5.2-20.38 4.4-36.96-4.99-44.55-25.57-9.59-25.58-8.79-77.72 1.4-98.3 7.19-14.19 13.59-18.58 28.17-19.58 8.99-.6 13.99.2 21.38 3.39 5.39 2.4 9.79 4 9.99 3.8.4-.4 2-4.19 3.79-8.59 3.2-7.39 3.2-7.99-.2-10.59-11.39-8.39-36.97-10.59-54.15-4.6zm109.49-.8c-25.38 8.19-37.56 39.76-25.18 65.93 5.2 11.19 9.59 15.58 31.37 31.57 18.58 13.39 24.17 20.78 25.37 33.37 2.2 24.17-19.38 38.36-44.55 28.77-14.98-5.59-14.19-5.79-17.58 4l-3 8.99 10.79 4.2c12.38 4.59 34.56 5.39 46.95 1.8 10.19-3.2 20.98-12.39 26.37-22.38 3.4-6.59 4.4-11.79 4.4-23.38 0-23.38-7.79-34.96-35.96-53.95-22.98-15.58-29.37-25.97-25.97-43.16 3.2-17.78 25.77-25.37 45.55-15.38 3.2 1.6 5.99 2.6 6.19 2.2.4-.4 2-4.4 3.79-8.99l3.2-8.19-8.39-3.4c-11.38-4.79-32.16-5.59-43.35-2zm103.49-.2c-21.78 7.99-32.97 25.58-31.17 48.15 1.4 16.38 8.59 28.37 24.77 40.56 33.17 24.97 36.76 29.57 36.76 44.95 0 17.38-8.39 26.77-25.57 28.57-6.2.8-12.39 0-18.38-2.2-5-1.8-10.39-3.8-12.19-4.2-2.2-.8-3.8 1.2-5.6 6.79-1.6 4.4-2.2 8.79-1.4 9.99 4.39 6.99 39.16 10.79 56.14 6.2 11.19-3.2 25.78-18.18 28.97-29.77 3.6-13.39 1.6-31.97-4.79-42.96-5-8.39-9.79-12.59-39.76-33.96-30.97-22.38-16.18-62.54 20.38-54.75 5.59 1.2 10.59 3 11.39 4 2 3.2 4.4 2 6.39-3.79 1-3 2.6-6.99 3.4-8.79 3.21-7.99-33.95-14.58-49.34-8.79zM267.34 766.29c-10.19 7.99-4.6 25.77 8.39 25.77 11.99 0 18.98-11.19 13.59-21.78-4.8-9.18-13.39-10.78-21.98-3.99z"/></svg>