<?xml version="1.0" encoding="utf-8"?>
<!-- Svg Vector Icons : http://www.onlinewebfonts.com/icon -->
<!DOCTYPE svg PUBLIC "-//W3C//DTD SVG 1.1//EN" "http://www.w3.org/Graphics/SVG/1.1/DTD/svg11.dtd">
<svg version="1.1" xmlns="http://www.w3.org/2000/svg" xmlns:xlink="http://www.w3.org/1999/xlink" x="0px" y="0px" viewBox="0 0 1000 1000" enable-background="new 0 0 1000 1000" xml:space="preserve">
<metadata> Svg Vector Icons : http://www.onlinewebfonts.com/icon </metadata>
<g><g transform="translate(0.000000,511.000000) scale(0.100000,-0.100000)"><path d="M4679.3,5001.3c-1182.8-77.9-2309.6-587.4-3148.8-1426.5c-387.6-389.6-677.3-797.2-927-1300.7C251.8,1560.8,100,907.5,100,106.3c0-803.2,151.8-1454.5,503.5-2167.8c247.7-503.5,521.5-887.1,909.1-1280.7c767.2-775.2,1764.2-1270.7,2857.1-1416.6c319.7-44,941-44,1258.7,0c549.4,73.9,1040.9,223.8,1538.4,469.5c987,487.5,1738.2,1236.7,2227.7,2227.7C9738.2-1370.1,9896-688.9,9900,106.3c2,773.2-159.8,1466.5-505.5,2167.8c-487.5,987-1238.8,1738.2-2227.7,2227.7C6391.6,4885.5,5534.4,5057.3,4679.3,5001.3z M5258.7,4763.6c36-26,53.9-61.9,62-123.9c8-47.9,12-901.1,12-1896.1c0-2033.9-8-1928,149.8-2107.8c43.9-50,127.9-115.9,183.8-145.8l101.9-54l859.1-4c473.5-4,1332.7-8,1912.1-10l1054.9-6l53.9-55.9l55.9-54l-4-295.7c-16-1204.8-509.5-2363.6-1374.6-3230.7C7730.2-3813.7,6981-4245.2,6191.8-4447c-935.1-239.8-1928-193.8-2805.1,129.9C1826.2-3743.7,673.4-2383.1,373.7-760.8C149.9,448,403.7,1696.7,1075,2703.7c713.3,1070.9,1808.1,1796.2,3062.9,2029.9C4631.4,4825.5,5154.8,4839.5,5258.7,4763.6z M5966,4711.6C7800.1,4332,9244.6,2873.5,9612.3,1035.4c22-109.9,46-255.7,53.9-323.7l14-123.9l-67.9,18c-42,12-789.2,20-1922,20c-2016,0-1904.1-6-2027.9,107.9c-119.9,107.9-113.9-14-123.9,2069.9c-6,1086.9-18,1924-27.9,1946c-18,36-12,38,99.9,24C5676.3,4765.6,5836.1,4737.6,5966,4711.6z"/><path d="M3508.5-1000.5c-121.9-38-201.8-107.9-257.7-219.8c-67.9-133.9-67.9-301.7-2-441.6c51.9-111.9,95.9-155.8,313.7-315.7c185.8-133.9,241.8-207.8,253.7-333.7c22-241.7-193.8-383.6-445.5-287.7c-143.9,53.9-143.9,53.9-165.8-6c-10-30-26-69.9-34-89.9c-22-53.9,175.8-115.9,365.6-115.9c331.7,2,509.5,167.8,511.5,479.5c2,231.8-73.9,347.7-355.6,539.5c-215.8,145.8-271.7,221.8-271.7,371.6c0,203.8,185.8,307.7,411.6,229.8c63.9-22,117.9-38,119.9-36c0,2,16,42,34,87.9l32,81.9l-83.9,34C3824.2-976.6,3612.4-966.6,3508.5-1000.5z"/><path d="M4703.3-1010.5c-189.8-65.9-323.7-239.8-383.6-501.5c-36-153.8-32-595.4,8-765.2c55.9-239.7,159.8-391.6,321.7-479.5c111.9-62,441.6-63.9,559.4-4c83.9,42,91.9,67.9,52,177.8c-20,49.9-24,51.9-67.9,24c-24-16-89.9-40-147.9-52c-203.8-44-369.6,49.9-445.5,255.7c-95.9,255.8-87.9,777.2,14,983c71.9,141.9,135.9,185.8,281.7,195.8c89.9,6,139.9-2,213.8-33.9c53.9-24,97.9-40,99.9-38c4,4,20,41.9,37.9,85.9c32,73.9,32,79.9-2,105.9C5130.9-972.6,4875.1-950.6,4703.3-1010.5z"/><path d="M5798.2-1002.5c-253.8-81.9-375.6-397.6-251.8-659.3c52-111.9,95.9-155.8,313.7-315.7c185.8-133.9,241.7-207.8,253.7-333.7c22-241.7-193.8-383.6-445.5-287.7c-149.8,55.9-141.9,57.9-175.8-40l-30-89.9l107.9-42c123.8-45.9,345.6-53.9,469.5-18c101.9,32,209.8,123.9,263.7,223.8c34,65.9,44,117.9,44,233.8c0,233.8-77.9,349.6-359.6,539.5c-229.8,155.8-293.7,259.7-259.7,431.6c32,177.8,257.7,253.7,455.5,153.8c32-16,59.9-26,61.9-22c4,4,20,44,37.9,89.9l32,81.9l-83.9,34C6117.9-974.6,5910.1-966.6,5798.2-1002.5z"/><path d="M6833.1-1000.5c-217.8-79.9-329.7-255.8-311.7-481.5c14-163.8,85.9-283.7,247.7-405.6c331.7-249.7,367.6-295.7,367.6-449.5c0-173.8-83.9-267.7-255.7-285.7c-62-8-123.9,0-183.8,22c-50,18-103.9,38-121.9,42c-22,8-38-12-56-67.9c-16-44-22-87.9-14-99.9c43.9-69.9,391.6-107.9,561.4-62c111.9,32,257.8,181.8,289.7,297.7c36,133.9,16,319.7-47.9,429.6c-50,83.9-97.9,125.9-397.6,339.6c-309.7,223.8-161.8,625.4,203.8,547.5c55.9-12,105.9-30,113.9-40c20-32,44-20,63.9,37.9c10,30,26,69.9,34,87.9C7358.6-1008.5,6987-942.6,6833.1-1000.5z"/><path d="M2673.4-2552.9c-101.9-79.9-46-257.7,83.9-257.7c119.9,0,189.8,111.9,135.9,217.8C2845.2-2501,2759.3-2485,2673.4-2552.9z"/></g></g>
</svg>