<svg viewBox="71.855 235.928 864.672 501.796" xmlns="http://www.w3.org/2000/svg"><path d="M338.874 385.9c-12.19 3.8-20.18 10.79-25.77 21.98-6.79 13.39-6.79 30.17-.2 44.16 5.19 11.19 9.59 15.58 31.37 31.57 18.58 13.39 24.18 20.78 25.37 33.37 2.2 24.17-19.38 38.36-44.55 28.77-14.39-5.39-14.39-5.39-16.58.6-1 3-2.6 6.99-3.4 8.99-2.2 5.39 17.58 11.59 36.56 11.59 33.17-.2 50.95-16.78 51.15-47.95.2-23.18-7.39-34.77-35.56-53.95-21.58-14.58-27.17-22.18-27.17-37.16 0-20.38 18.58-30.77 41.16-22.98 6.39 2.2 11.79 3.8 11.99 3.6 0-.2 1.6-4.2 3.4-8.79l3.2-8.19-8.39-3.4c-11.01-4.6-32.19-5.6-42.58-2.21zm119.48 1c-18.98 6.59-32.37 23.98-38.36 50.15-3.6 15.38-3.2 59.54.8 76.52 5.59 23.97 15.98 39.16 32.17 47.95 11.19 6.2 44.16 6.39 55.94.4 8.39-4.2 9.19-6.79 5.2-17.78-2-4.99-2.4-5.19-6.79-2.4-2.4 1.6-8.99 4-14.79 5.2-20.38 4.4-36.96-4.99-44.55-25.57-9.59-25.58-8.79-77.72 1.4-98.3 7.19-14.19 13.59-18.58 28.17-19.58 8.99-.6 13.99.2 21.38 3.39 5.39 2.4 9.79 4 9.99 3.8.4-.4 2-4.19 3.79-8.59 3.2-7.39 3.2-7.99-.2-10.59-11.39-8.39-36.97-10.59-54.15-4.6zm109.49-.8c-25.38 8.19-37.56 39.76-25.18 65.93 5.2 11.19 9.59 15.58 31.37 31.57 18.58 13.39 24.17 20.78 25.37 33.37 2.2 24.17-19.38 38.36-44.55 28.77-14.98-5.59-14.19-5.79-17.58 4l-3 8.99 10.79 4.2c12.38 4.59 34.56 5.39 46.95 1.8 10.19-3.2 20.98-12.39 26.37-22.38 3.4-6.59 4.4-11.79 4.4-23.38 0-23.38-7.79-34.96-35.96-53.95-22.98-15.58-29.37-25.97-25.97-43.16 3.2-17.78 25.77-25.37 45.55-15.38 3.2 1.6 5.99 2.6 6.19 2.2.4-.4 2-4.4 3.79-8.99l3.2-8.19-8.39-3.4c-11.38-4.79-32.16-5.59-43.35-2zm103.49-.2c-21.78 7.99-32.97 25.58-31.17 48.15 1.4 16.38 8.59 28.37 24.77 40.56 33.17 24.97 36.76 29.57 36.76 44.95 0 17.38-8.39 26.77-25.57 28.57-6.2.8-12.39 0-18.38-2.2-5-1.8-10.39-3.8-12.19-4.2-2.2-.8-3.8 1.2-5.6 6.79-1.6 4.4-2.2 8.79-1.4 9.99 4.39 6.99 39.16 10.79 56.14 6.2 11.19-3.2 25.78-18.18 28.97-29.77 3.6-13.39 1.6-31.97-4.79-42.96-5-8.39-9.79-12.59-39.76-33.96-30.97-22.38-16.18-62.54 20.38-54.75 5.59 1.2 10.59 3 11.39 4 2 3.2 4.4 2 6.39-3.79 1-3 2.6-6.99 3.4-8.79 3.21-7.99-33.95-14.58-49.34-8.79zm-415.97 155.24c-10.19 7.99-4.6 25.77 8.39 25.77 11.99 0 18.98-11.19 13.59-21.78-4.8-9.18-13.39-10.78-21.98-3.99z"/></svg>