<svg width="512" height="512" xmlns="http://www.w3.org/2000/svg"><g fill="none"><path d="M72.345 209.921c0 12.977-1.745 22.709-5.234 29.197-3.49 6.488-9.932 12.248-19.328 17.28 9.127 4.766 15.502 10.658 19.126 17.676 3.624 7.018 5.436 16.75 5.436 29.196v63.954c0 14.565 2.55 24.165 7.65 28.8 5.1 4.633 15.436 6.95 31.005 6.95V428H99.323c-20.401 0-34.897-4.436-43.487-13.307-8.59-8.872-12.885-23.9-12.885-45.086v-65.542c0-11.388-1.744-19.862-5.234-25.423s-9.395-9.401-17.717-11.52v-23.436c15.301-4.237 22.951-16.022 22.951-35.353V138.42c0-19.332 4.497-33.234 13.49-41.709C65.432 88.237 79.86 84 99.725 84H111v25.025c-15.57.265-25.904 2.649-31.004 7.15-5.1 4.502-7.65 13.639-7.65 27.41v66.336z" fill-opacity=".5" fill="#35495E"/><path d="M284.78 113.887l-29.545 51.47-29.545-51.47h-98.389l127.934 222.876L383.17 113.887z" fill="#41B883"/><path d="M284.78 113.887l-29.545 51.47-29.545-51.47h-47.215l76.76 133.723 76.76-133.723zM202.55 370.5H210l6.1 15.6h.35l6.15-15.6h7.4L219.45 395H213l-10.45-24.5zm47.4 21.3h-.4a8.302 8.302 0 01-3.1 2.925c-1.3.717-2.783 1.075-4.45 1.075-3.1 0-5.408-.95-6.925-2.85-1.517-1.9-2.275-4.433-2.275-7.6V370.5h6.55v14.05c0 1.767.392 3.075 1.175 3.925.783.85 1.925 1.275 3.425 1.275.9 0 1.692-.192 2.375-.575a5.545 5.545 0 001.75-1.55c.483-.65.85-1.417 1.1-2.3.25-.883.375-1.825.375-2.825v-12h6.55V395h-6.15v-3.2zm34.7-2.7a13.726 13.726 0 01-4.575 4.85c-1.917 1.233-4.258 1.85-7.025 1.85-1.867 0-3.592-.325-5.175-.975a12.453 12.453 0 01-4.125-2.725 12.453 12.453 0 01-2.725-4.125c-.65-1.583-.975-3.325-.975-5.225 0-1.767.317-3.442.95-5.025a12.811 12.811 0 012.65-4.15 12.812 12.812 0 014.025-2.825c1.55-.7 3.258-1.05 5.125-1.05 1.967 0 3.717.325 5.25.975 1.533.65 2.817 1.55 3.85 2.7 1.033 1.15 1.817 2.508 2.35 4.075.533 1.567.8 3.267.8 5.1v.6a3.4 3.4 0 00-.05.55 2.81 2.81 0 00-.05.55H266.5c.133 1 .408 1.858.825 2.575a6.246 6.246 0 001.55 1.8 6.026 6.026 0 002.025 1.05 7.9 7.9 0 002.25.325c1.5 0 2.742-.342 3.725-1.025a7.48 7.48 0 002.325-2.575l5.45 2.7zm-5.95-9.5c-.033-.433-.175-.917-.425-1.45a5.105 5.105 0 00-1.1-1.5c-.483-.467-1.083-.85-1.8-1.15-.717-.3-1.575-.45-2.575-.45-1.4 0-2.633.4-3.7 1.2-1.067.8-1.817 1.917-2.25 3.35h11.85zm16.15 2.95l-8.4-12.05h7.75l4.45 6.8h.35l4.2-6.8h8l-8.6 12.05 8.6 12.45h-7.7l-4.6-7h-.35l-4.45 7h-7.75l8.5-12.45z" fill="#34495E"/><path d="M440.655 209.921c0 12.977 1.745 22.709 5.234 29.197 3.49 6.488 9.932 12.248 19.328 17.28-9.127 4.766-15.502 10.658-19.126 17.676-3.624 7.018-5.436 16.75-5.436 29.196v63.954c0 14.565-2.55 24.165-7.65 28.8-5.1 4.633-15.436 6.95-31.005 6.95V428h11.677c20.401 0 34.897-4.436 43.487-13.307 8.59-8.872 12.885-23.9 12.885-45.086v-65.542c0-11.388 1.744-19.862 5.234-25.423s9.395-9.401 17.717-11.52v-23.436c-15.301-4.237-22.951-16.022-22.951-35.353V138.42c0-19.332-4.497-33.234-13.49-41.709C447.568 88.237 433.14 84 413.275 84H402v25.025c15.57.265 25.904 2.649 31.004 7.15 5.1 4.502 7.65 13.639 7.65 27.41v66.336z" fill-opacity=".5" fill="#35495E"/></g></svg>